{
  "asset": {
    "generator": "glTF-Transform v4.5.0",
    "version": "2.0"
  },
  "accessors": [
    {
      "type": "SCALAR",
      "componentType": 5125,
      "count": 875886,
      "bufferView": 0,
      "byteOffset": 0
    },
    {
      "type": "VEC3",
      "componentType": 5120,
      "count": 183231,
      "normalized": true,
      "bufferView": 1,
      "byteOffset": 0
    },
    {
      "type": "VEC3",
      "componentType": 5122,
      "count": 183231,
      "max": [
        17002,
        19426,
        32767
      ],
      "min": [
        -17002,
        -19426,
        -32767
      ],
      "normalized": true,
      "bufferView": 1,
      "byteOffset": 4
    },
    {
      "type": "VEC2",
      "componentType": 5123,
      "count": 183231,
      "normalized": true,
      "bufferView": 1,
      "byteOffset": 12
    }
  ],
  "bufferViews": [
    {
      "buffer": 0,
      "byteOffset": 0,
      "byteLength": 3503544,
      "target": 34963
    },
    {
      "buffer": 0,
      "byteOffset": 3503544,
      "byteLength": 2931696,
      "byteStride": 16,
      "target": 34962
    }
  ],
  "samplers": [
    {
      "wrapS": 10497,
      "wrapT": 10497
    }
  ],
  "textures": [
    {
      "sampler": 0,
      "extensions": {
        "EXT_texture_webp": {
          "source": 2
        }
      }
    },
    {
      "sampler": 0,
      "extensions": {
        "EXT_texture_webp": {
          "source": 0
        }
      }
    },
    {
      "sampler": 0,
      "extensions": {
        "EXT_texture_webp": {
          "source": 1
        }
      }
    }
  ],
  "images": [
    {
      "name": "Image_2.jpg",
      "mimeType": "image/webp",
      "uri": "normal_1.webp"
    },
    {
      "name": "ao_met_rough_texture_0_roughness",
      "mimeType": "image/webp",
      "uri": "metallicRoughness_1.webp"
    },
    {
      "name": "Image_0.jpg",
      "mimeType": "image/webp",
      "uri": "baseColor_1.webp"
    }
  ],
  "buffers": [
    {
      "uri": "sibyl.bin",
      "byteLength": 6435240
    }
  ],
  "materials": [
    {
      "name": "Material.001",
      "extras": {
        "fromFBX": {
          "shadingModel": "Phong",
          "isTruePBR": false
        }
      },
      "pbrMetallicRoughness": {
        "baseColorTexture": {
          "index": 0
        },
        "metallicRoughnessTexture": {
          "index": 2
        }
      },
      "normalTexture": {
        "index": 1
      }
    }
  ],
  "meshes": [
    {
      "name": "Mesh_0",
      "primitives": [
        {
          "attributes": {
            "NORMAL": 1,
            "POSITION": 2,
            "TEXCOORD_0": 3
          },
          "mode": 4,
          "material": 0,
          "indices": 0
        }
      ]
    }
  ],
  "nodes": [
    {
      "name": "Mesh_0",
      "translation": [
        -0.0027215108275413513,
        0.0017305370324352954,
        -0.0014504649518894438
      ],
      "rotation": [
        -0.7071067690849294,
        0,
        0,
        0.7071067932881654
      ],
      "scale": [
        0.9490064810961485,
        0.9490064486130397,
        0.9490064486130397
      ],
      "mesh": 0
    }
  ],
  "scenes": [
    {
      "name": "Root Scene",
      "nodes": [
        0
      ]
    }
  ],
  "scene": 0,
  "extensionsUsed": [
    "EXT_texture_webp",
    "KHR_mesh_quantization"
  ],
  "extensionsRequired": [
    "EXT_texture_webp",
    "KHR_mesh_quantization"
  ]
}